<svg width="100" height="30" viewBox="0 0 100 30" fill="none" xmlns="http://www.w3.org/2000/svg">
    <path
        d="M16.68 21.72C17.32 21.6133 17.8 21.56 18.12 21.56C18.4667 21.56 19.2 21.6533 20.32 21.84C20.4267 22.0533 20.5733 22.7333 20.76 23.88C20.9733 25.0267 21.08 25.96 21.08 26.68C21.08 27.3733 21 28.1467 20.84 29H1.44L1.08 26.8C2.38667 26.2667 3.50667 25.88 4.44 25.64C4.44 25.56 4.32 18.5067 4.08 4.48L0.76 3.44L1.08 0.999998H11.48C11.4533 0.999998 11.4533 1.02667 11.48 1.08C11.5333 1.13333 11.5867 1.25333 11.64 1.44C11.72 1.6 11.8 1.8 11.88 2.04C12.04 2.46666 12.1467 3.17333 12.2 4.16C10.84 4.37333 9.94667 4.50667 9.52 4.56C9.41333 13.76 9.34667 20.6267 9.32 25.16H15.8L16.68 21.72ZM34.8719 25.24C39.2985 25.24 41.5119 21.84 41.5119 15.04C41.5119 8.24 39.2985 4.84 34.8719 4.84C32.9519 4.84 31.2719 5.13333 29.8319 5.72C28.6052 8.28 27.9919 11.2533 27.9919 14.64C27.9919 18 28.4985 20.6133 29.5119 22.48C30.5252 24.32 32.3119 25.24 34.8719 25.24ZM34.8719 0.52C39.3252 0.52 42.4585 1.69333 44.2719 4.04C46.0852 6.36 46.9919 9.92 46.9919 14.72C46.9919 17.7333 46.6052 20.3067 45.8319 22.44C45.0585 24.5733 43.7519 26.28 41.9119 27.56C40.0719 28.84 37.7252 29.48 34.8719 29.48C30.5252 29.48 27.3652 28.2667 25.3919 25.84C23.4452 23.4133 22.4719 19.88 22.4719 15.24C22.4719 5.42667 26.6052 0.52 34.8719 0.52ZM60.2903 29.52C56.6636 29.52 53.7703 28.2933 51.6103 25.84C49.4503 23.3867 48.3703 19.76 48.3703 14.96C48.3703 10.16 49.3036 6.56 51.1703 4.16C53.0636 1.73333 56.117 0.52 60.3303 0.52C62.117 0.52 63.8236 0.76 65.4503 1.24C67.1036 1.72 68.2236 2.13333 68.8103 2.48C69.397 2.8 69.8636 3.09333 70.2103 3.36C70.2103 5.06667 69.997 6.96 69.5703 9.04C68.877 9.36 68.1836 9.52 67.4903 9.52C66.8236 9.52 66.2503 9.49333 65.7703 9.44L64.9303 5.28C63.757 4.96 62.6103 4.8 61.4903 4.8C59.917 4.8 57.957 5.12 55.6103 5.76C54.437 8.10667 53.8503 10.96 53.8503 14.32C53.8503 21.68 56.0103 25.36 60.3303 25.36C62.4903 25.36 64.2103 25 65.4903 24.28C65.5436 22.8933 65.597 20.76 65.6503 17.88L62.2903 16.84L62.6103 14.4H72.2903C72.6103 14.9867 72.8503 16.04 73.0103 17.56C72.1036 17.7467 71.1303 17.88 70.0903 17.96C70.2503 21.4 70.3303 24.36 70.3303 26.84C69.557 27.3467 68.157 27.92 66.1303 28.56C64.1036 29.2 62.157 29.52 60.2903 29.52ZM86.9813 25.24C91.4079 25.24 93.6213 21.84 93.6213 15.04C93.6213 8.24 91.4079 4.84 86.9813 4.84C85.0613 4.84 83.3813 5.13333 81.9413 5.72C80.7146 8.28 80.1013 11.2533 80.1013 14.64C80.1013 18 80.6079 20.6133 81.6213 22.48C82.6346 24.32 84.4213 25.24 86.9813 25.24ZM86.9813 0.52C91.4346 0.52 94.5679 1.69333 96.3812 4.04C98.1946 6.36 99.1013 9.92 99.1013 14.72C99.1013 17.7333 98.7146 20.3067 97.9413 22.44C97.1679 24.5733 95.8613 26.28 94.0213 27.56C92.1813 28.84 89.8346 29.48 86.9813 29.48C82.6346 29.48 79.4746 28.2667 77.5013 25.84C75.5546 23.4133 74.5813 19.88 74.5813 15.24C74.5813 5.42667 78.7146 0.52 86.9813 0.52Z"
        fill="#344054" />
</svg>